<mxfile host="app.diagrams.net" agent="Mozilla/5.0 (Windows NT 10.0; Win64; x64) AppleWebKit/537.36 (KHTML, like Gecko) Chrome/135.0.0.0 Safari/537.36" version="26.2.14">
  <diagram name="Page-1" id="J2uayf3noEoXQTc5zOfh">
    <mxGraphModel dx="1348" dy="609" grid="0" gridSize="10" guides="1" tooltips="1" connect="1" arrows="1" fold="1" page="0" pageScale="1" pageWidth="850" pageHeight="1100" math="0" shadow="0">
      <root>
        <mxCell id="0" />
        <mxCell id="1" parent="0" />
        <mxCell id="gHo2pWpHIShWOByOGvFq-5" value="" style="edgeStyle=none;curved=1;rounded=0;orthogonalLoop=1;jettySize=auto;html=1;fontSize=12;startSize=8;endSize=8;" edge="1" parent="1" source="gHo2pWpHIShWOByOGvFq-1" target="gHo2pWpHIShWOByOGvFq-4">
          <mxGeometry relative="1" as="geometry" />
        </mxCell>
        <mxCell id="gHo2pWpHIShWOByOGvFq-1" value="" style="sketch=0;aspect=fixed;pointerEvents=1;shadow=0;dashed=0;html=1;strokeColor=none;labelPosition=center;verticalLabelPosition=bottom;verticalAlign=top;align=center;fillColor=#00188D;shape=mxgraph.azure.computer" vertex="1" parent="1">
          <mxGeometry x="396" y="286" width="50" height="45" as="geometry" />
        </mxCell>
        <mxCell id="gHo2pWpHIShWOByOGvFq-2" value="" style="verticalLabelPosition=bottom;html=1;verticalAlign=top;align=center;strokeColor=none;fillColor=#00BEF2;shape=mxgraph.azure.laptop;pointerEvents=1;" vertex="1" parent="1">
          <mxGeometry x="186" y="398" width="50" height="30" as="geometry" />
        </mxCell>
        <mxCell id="gHo2pWpHIShWOByOGvFq-3" value="" style="edgeStyle=segmentEdgeStyle;endArrow=classic;html=1;curved=0;rounded=0;endSize=8;startSize=8;fontSize=12;entryX=0.5;entryY=1;entryDx=0;entryDy=0;entryPerimeter=0;exitX=0.852;exitY=0.773;exitDx=0;exitDy=0;exitPerimeter=0;" edge="1" parent="1" source="gHo2pWpHIShWOByOGvFq-2" target="gHo2pWpHIShWOByOGvFq-1">
          <mxGeometry width="50" height="50" relative="1" as="geometry">
            <mxPoint x="238" y="416" as="sourcePoint" />
            <mxPoint x="288" y="450" as="targetPoint" />
            <Array as="points">
              <mxPoint x="229" y="416" />
              <mxPoint x="205" y="416" />
              <mxPoint x="205" y="409" />
              <mxPoint x="374" y="409" />
              <mxPoint x="374" y="450" />
              <mxPoint x="421" y="450" />
            </Array>
          </mxGeometry>
        </mxCell>
        <mxCell id="gHo2pWpHIShWOByOGvFq-4" value="" style="sketch=0;aspect=fixed;pointerEvents=1;shadow=0;dashed=0;html=1;strokeColor=none;labelPosition=center;verticalLabelPosition=bottom;verticalAlign=top;align=center;fillColor=#00188D;shape=mxgraph.azure.computer" vertex="1" parent="1">
          <mxGeometry x="396" y="121" width="50" height="45" as="geometry" />
        </mxCell>
      </root>
    </mxGraphModel>
  </diagram>
</mxfile>
